<?xml version="1.0" encoding="utf-8"?>
<!-- Generator: Adobe Illustrator 21.0.0, SVG Export Plug-In . SVG Version: 6.00 Build 0)  -->
<svg version="1.1" id="Layer_1" xmlns="http://www.w3.org/2000/svg" xmlns:xlink="http://www.w3.org/1999/xlink" x="0px" y="0px"
	 viewBox="0 0 185 208.4" style="enable-background:new 0 0 185 208.4;" xml:space="preserve">
<style type="text/css">
	.st0{fill:#FFFFFF;}
	.st1{fill:#6C5CE7;}
</style>
<g>
	<path class="st0" d="M185,148V60.5c0-6-3.2-11.5-8.4-14.5L100.9,2.2c-5.2-3-11.6-3-16.7,0L8.4,46C3.2,49,0,54.5,0,60.5V148
		c0,6,3.2,11.5,8.4,14.5l75.8,43.7c5.2,3,11.6,3,16.7,0l75.8-43.7C181.8,159.5,185,153.9,185,148z"/>
</g>
<path class="st1" d="M136.4,66.5c0,2-1.6,4.2-4.7,6.7c-1.5,1.1-2.9,1.7-4.2,1.7c-0.7,0-2.6-0.3-5.6-1c-6.5,3.5-16.4,14.2-29.7,32.1
	c9.9,0.2,17.3,0.5,22.1,1c1.9,0.2,2.8,0.9,2.8,2.3c0,1-1.1,1.7-3.4,1.8c-8.9,0.7-18,1.6-27.1,2.7c-6.5,9.5-11.3,17.4-14.6,23.7
	c8,0,19.7,1.3,35.3,4c1.1,0.2,2,0.3,2.7,0.3c1.1,0,2-0.5,2.7-1.6c0.7-1.8,1.6-2.7,2.7-2.7c1,0,1.7,0.4,2.1,1.1
	c0.7,2.4,1.3,4.8,2,7.2c0.2,0.6,0.3,1.2,0.3,1.8c0,1.3-0.6,2.4-1.7,3.4c-1.1,1-2.3,1.9-3.4,2.8c-0.7,0.6-2.2,0.5-4.6-0.4
	c-14.6-5.2-28.8-7.8-42.5-7.8c-1.3,1.6-2.3,2.6-3.1,2.9c-0.8,0.4-2.3,0.5-4.6,0.5c-2,0-3.7-0.9-5-2.6s-1.9-2.8-1.9-3.1
	c0-0.6,0.4-1.5,1.3-2.7c1.2-1.7,2.7-2.7,4.4-3c0.6-0.1,2.5-0.2,5.5-0.1c2.1-3.5,5-8.1,8.8-13.9c0-2.6-0.2-5.3-0.6-8.1
	c-0.5-2.9-0.7-4.5-0.7-4.9c0-1,0.3-1.7,0.8-2.1c1.1-1,5.3-1.8,12.4-2.1c12.2-17.1,22.1-28.8,29.7-35.1c-0.1,0-5-1.6-14.6-4.9
	C93.4,64.1,88.5,63,85.1,63c-4.6,0-8.1,2-10.3,5.9C72,74,69.1,81,66.3,89.9c-0.5,1.6-1.5,2.5-2.9,2.5c-1.1,0-1.7-0.7-1.7-2.2
	c0-0.3,0-0.7,0.1-1.2c3.1-13.3,6.4-23.6,10.2-31c2.1-4,5.7-6,10.9-6c3.3,0,9.8,1.8,19.3,5.5c10.1,3.9,16.8,6,20.2,6.4
	c2.6-2,4.9-3,6.9-3c1,0,2.3,0.2,3.6,0.6c2.5,0.7,3.7,1.7,3.7,3c0,0.2,0,0.6-0.1,1C136.5,65.9,136.4,66.3,136.4,66.5z"/>
</svg>
